<svg id="wiforge_v2" xmlns="http://www.w3.org/2000/svg" viewBox="0 0 1004 500"><defs><style>.cls-1{opacity:0.8;}.cls-2{fill:#fcdf12;}.cls-3{fill:#2fa64f;}.cls-4{opacity:0.5;}.cls-5{fill:#96c331;}.cls-6{fill:#3d8dd8;}.cls-7{fill:#e8382a;}.cls-8{fill:#946484;}.cls-9{fill:#f28c1e;}.cls-10{fill:#945671;}.cls-11{opacity:0.9;}</style></defs><g class="cls-1"><path class="cls-2" d="M934.24,368.46l180,310.8c10.36-7.83,22.49-11.53,31.15-18.06L965.24,350.49C953.69,355.13,944.66,362.86,934.24,368.46Z" transform="translate(-430 -264)"/></g><path class="cls-3" d="M1351.31,383.45l-170.65,294.7c-13.2-8.75-25.19-13.73-31.14-18.06l170.8-294.61C1359,337.59,1364.68,349.18,1351.31,383.45Z" transform="translate(-430 -264)"/><g class="cls-4"><circle class="cls-5" cx="718" cy="429" r="70"/></g><path class="cls-6" d="M516.13,394.51,680.79,678.86c14.6-10.22,26.43-16.26,31.14-18.05L547.13,376.54C519.32,350.74,508.26,355.41,516.13,394.51Z" transform="translate(-430 -264)"/><path class="cls-7" d="M931.91,366.44,744.3,676.78c-11.38-7.6-22.15-13.27-30.8-18.64L901.25,347.89C907.06,352.65,918.11,358.59,931.91,366.44Z" transform="translate(-430 -264)"/><g class="cls-4"><circle class="cls-8" cx="286" cy="430" r="70"/></g><g class="cls-4"><circle class="cls-9" cx="502" cy="70" r="70"/></g><circle class="cls-3" cx="934" cy="70" r="70"/><circle class="cls-6" cx="70" cy="70" r="70"/><circle class="cls-3" cx="934" cy="47" r="39"/><circle class="cls-6" cx="70" cy="57" r="39"/><circle class="cls-9" cx="502" cy="71" r="39"/><circle class="cls-10" cx="286" cy="431" r="39"/><g class="cls-11"><circle class="cls-5" cx="718" cy="429" r="39"/></g></svg>